<?xml version="1.0" encoding="iso-8859-1"?>
<!-- Generator: Adobe Illustrator 19.0.0, SVG Export Plug-In . SVG Version: 6.00 Build 0)  -->
<svg version="1.1" id="Capa_1" xmlns="http://www.w3.org/2000/svg" xmlns:xlink="http://www.w3.org/1999/xlink" x="0px" y="0px"
	 viewBox="0 0 512.004 512.004" style="enable-background:new 0 0 512.004 512.004;" xml:space="preserve">
<path style="fill:#CCCCCC;" d="M188.054,28.212l83.356,222.841c1.531,4.092-0.546,8.651-4.638,10.181l0,0
	c-2.263,0.846-3.745,3.028-3.699,5.443l0.994,52.159l-29.753,1.315l-0.317-41.298c-0.027-3.535-0.675-7.037-1.913-10.348
	L137.382,15.334c-0.397-1.061,0.142-2.244,1.203-2.641l8.457-3.163C163.526,3.363,181.888,11.728,188.054,28.212z"/>
<path style="fill:#FF7357;" d="M316.002,450.691l-31.77-84.93l-13.23-47.23l-42.47,1.88l-8.14,31.07l-19.04,7.13
	c-14.21,5.31-21.42,21.14-16.11,35.36l34.67,92.66c5.31,14.22,21.15,21.44,35.36,16.12l44.62-16.69
	C314.102,480.751,321.322,464.901,316.002,450.691z M282.882,459.561l-32.17,12.03c-1.73,0.65-3.66-0.23-4.31-1.96l-30-80.22
	c-0.65-1.73,0.23-3.66,1.96-4.31l32.17-12.03c1.73-0.65,3.66,0.23,4.31,1.96l30,80.22
	C285.492,456.981,284.612,458.911,282.882,459.561z"/>
<path style="fill:#FB624C;" d="M316.002,450.691l-31.77-84.93l-13.23-47.23l-28.787,1.274l12.719,55.47l29.909,79.976
	c0.124,0.329,0.176,0.665,0.193,0.999l1.967,5.258c5.32,14.21-1.9,30.06-16.11,35.37l-16.716,6.252
	c0.366-0.12,0.732-0.243,1.096-0.379l44.62-16.69C314.102,480.751,321.322,464.901,316.002,450.691z"/>
<path style="fill:#E6E6E6;" d="M28.213,188.053l222.841,83.356c4.092,1.531,8.651-0.546,10.181-4.638l0,0
	c0.846-2.263,3.028-3.745,5.443-3.699l52.159,0.994l1.315-29.753l-41.298-0.317c-3.535-0.027-7.037-0.675-10.348-1.913
	L15.335,137.381c-1.061-0.397-2.244,0.142-2.641,1.203l-3.163,8.457C3.364,163.525,11.729,181.887,28.213,188.053z"/>
<path style="fill:#FF7357;" d="M486.632,219.911l-92.66-34.67c-14.22-5.31-30.05,1.9-35.36,16.11l-7.13,19.04l-31.07,8.14
	l-1.88,42.47l47.23,13.23l84.93,31.77c14.21,5.32,30.06-1.9,35.37-16.11l16.69-44.62
	C508.072,241.061,500.852,225.221,486.632,219.911z M471.592,250.711l-12.03,32.17c-0.65,1.73-2.58,2.61-4.31,1.96l-80.22-30
	c-1.73-0.65-2.61-2.58-1.96-4.31l12.03-32.17c0.65-1.73,2.58-2.61,4.31-1.96l80.22,30
	C471.362,247.051,472.242,248.981,471.592,250.711z"/>
<path style="fill:#FB624C;" d="M486.632,219.911l-92.66-34.67c-14.22-5.31-30.05,1.9-35.36,16.11l-1.411,3.768
	c1.701,0.327,3.355,0.774,4.927,1.361l26.153,9.72c0.376,0.005,0.757,0.061,1.13,0.201l80.22,30
	c0.097,0.037,0.182,0.091,0.273,0.135l5.997,2.229c13.674,5.106,20.869,19.949,16.671,33.717l10.178-27.211
	C508.072,241.061,500.852,225.221,486.632,219.911z"/>
<path d="M249.543,479.296c1.26,0,2.54-0.221,3.788-0.687l32.167-12.033c2.714-1.015,4.87-3.025,6.071-5.662s1.305-5.583,0.289-8.297
	l-30.006-80.216c-2.096-5.601-8.356-8.452-13.959-6.358l-32.168,12.033c-2.714,1.015-4.87,3.025-6.072,5.663
	c-1.201,2.636-1.303,5.582-0.288,8.296l30.006,80.214c0,0,0,0,0,0.001C241,476.603,245.146,479.296,249.543,479.296z
	 M253.42,466.993l-0.003-0.008C253.418,466.988,253.419,466.99,253.42,466.993L253.42,466.993z M224.869,390.669l24.39-9.123
	l27.096,72.435l-24.39,9.124L224.869,390.669z"/>
<path d="M508.832,231.144c-3.876-8.502-10.829-14.987-19.579-18.259l-92.665-34.661c-18.064-6.758-38.258,2.442-45.014,20.504
	l-5.759,15.396l-27.319,7.161c-2.697,0.707-4.723,2.842-5.368,5.476l-34.224-0.262c-2.665-0.021-5.282-0.504-7.778-1.437
	l-1.675-0.626l-37.688-100.749c-1.45-3.879-5.773-5.848-9.652-4.396c-3.879,1.451-5.848,5.772-4.396,9.652l33.117,88.528
	l-34.69-12.975L146.308,17.821l3.356-1.254c6.092-2.281,12.711-2.052,18.636,0.648c5.924,2.698,10.441,7.54,12.72,13.635
	l25.171,67.287c1.451,3.88,5.774,5.85,9.652,4.396c3.88-1.451,5.849-5.772,4.397-9.652l-25.17-67.285
	c-3.681-9.847-10.979-17.672-20.551-22.031c-9.572-4.362-20.267-4.733-30.109-1.047l-8.48,3.167
	c-2.381,0.897-4.273,2.666-5.328,4.98c-1.061,2.329-1.148,4.929-0.252,7.305l67.169,179.557L17.957,130.365
	c-2.391-0.895-4.986-0.804-7.31,0.253c-2.322,1.059-4.092,2.957-4.985,5.345l-3.164,8.456c-7.604,20.331,2.749,43.059,23.08,50.664
	l152.761,57.139c3.88,1.455,8.201-0.518,9.652-4.396c1.451-3.88-0.517-8.201-4.397-9.652l-152.76-57.14
	c-12.584-4.708-18.993-18.776-14.287-31.36l1.255-3.353l248.067,92.789c4.146,1.55,8.492,2.353,12.918,2.388l33.519,0.257
	l-0.648,14.675l-44.843-0.854c-5.636-0.1-10.655,3.337-12.614,8.571c-0.079,0.211-0.315,0.321-0.529,0.24l-41.191-15.407
	c-3.877-1.452-8.201,0.517-9.652,4.396c-1.452,3.88,0.517,8.201,4.397,9.652l17.198,6.433l0.622,1.665
	c0.938,2.513,1.422,5.127,1.437,7.784l0.265,34.226c-2.634,0.645-4.768,2.671-5.476,5.369l-7.161,27.317l-15.396,5.759
	c-18.063,6.757-27.262,26.949-20.505,45.013l34.663,92.662c3.273,8.75,9.758,15.702,18.26,19.578c4.63,2.11,9.554,3.17,14.493,3.17
	c4.134,0,8.278-0.743,12.265-2.234l44.618-16.689c8.75-3.272,15.703-9.759,19.578-18.266c3.875-8.506,4.206-18.009,0.933-26.759
	l-13.42-35.873c-1.45-3.88-5.77-5.848-9.652-4.396c-3.879,1.451-5.848,5.772-4.396,9.652l13.42,35.873
	c3.861,10.322-1.395,21.86-11.718,25.721l-44.617,16.689c-4.997,1.869-10.423,1.678-15.28-0.535
	c-4.858-2.215-8.563-6.187-10.433-11.186l-34.662-92.662c-3.859-10.317,1.394-21.85,11.711-25.709l19.037-7.121
	c2.284-0.853,4.009-2.765,4.627-5.123l6.745-25.73l0.235-0.01c0.006,0,0.011,0,0.017,0l29.749-1.31
	c0.025-0.001,0.05-0.006,0.075-0.007l0.924-0.041l11.623,41.492c0.057,0.205,0.123,0.406,0.197,0.605l7.31,19.538
	c1.451,3.881,5.772,5.852,9.652,4.396c3.88-1.451,5.848-5.772,4.396-9.652l-7.198-19.239l-13.142-46.919
	c-0.873-3.116-3.624-5.247-6.813-5.436l-0.767-40.42l40.419,0.77c0.176,3.175,2.325,5.936,5.44,6.808l46.921,13.142l84.631,31.657
	c4.025,1.506,8.156,2.22,12.221,2.22c14.182,0,27.553-8.687,32.806-22.729l16.689-44.616
	C513.041,249.15,512.709,239.649,508.832,231.144z M248.418,278.435c1.773,0.663,3.592,0.977,5.382,0.977
	c0.673,0,1.34-0.049,2-0.136l0.614,32.39l-14.673,0.648l-0.259-33.506c-0.006-1.011-0.057-2.018-0.144-3.021L248.418,278.435z
	 M495.719,252.645l-16.689,44.616c-3.861,10.322-15.401,15.574-25.722,11.717l-84.93-31.768c-0.199-0.074-0.4-0.141-0.605-0.197
	l-41.494-11.622l0,0l0,0l0,0l1.369-30.999l25.732-6.746c2.357-0.618,4.269-2.344,5.122-4.627l7.121-19.036
	c3.859-10.317,15.393-15.568,25.71-11.711l92.665,34.661c4.999,1.87,8.972,5.575,11.186,10.432
	C497.397,242.223,497.588,247.649,495.719,252.645z"/>
<path d="M472.247,239.38L472.247,239.38l-80.213-30.003c-2.716-1.017-5.663-0.914-8.3,0.287c-2.638,1.201-4.648,3.357-5.663,6.07
	l-12.034,32.168c-2.095,5.602,0.759,11.864,6.36,13.958l80.218,30.006c1.237,0.462,2.522,0.692,3.805,0.692
	c1.53,0,3.058-0.328,4.492-0.982c2.637-1.201,4.647-3.357,5.662-6.07l12.034-32.168c1.015-2.714,0.911-5.66-0.29-8.296
	S474.961,240.396,472.247,239.38z M453.98,276.364l-72.438-27.096l9.123-24.388l72.439,27.095L453.98,276.364z M466.981,253.425
	l0.012,0.004c0.001,0,0.001,0,0.001,0.001C466.989,253.428,466.984,253.426,466.981,253.425z"/>
<circle cx="243.552" cy="244.811" r="7.5"/>
<g>
</g>
<g>
</g>
<g>
</g>
<g>
</g>
<g>
</g>
<g>
</g>
<g>
</g>
<g>
</g>
<g>
</g>
<g>
</g>
<g>
</g>
<g>
</g>
<g>
</g>
<g>
</g>
<g>
</g>
</svg>
